<?xml version="1.0" encoding="UTF-8" standalone="no"?>
<!-- Created with Inkscape (http://www.inkscape.org/) -->
<svg xmlns:inkscape="http://www.inkscape.org/namespaces/inkscape" xmlns:rdf="http://www.w3.org/1999/02/22-rdf-syntax-ns#" xmlns="http://www.w3.org/2000/svg" xmlns:cc="http://creativecommons.org/ns#" xmlns:dc="http://purl.org/dc/elements/1.1/" xmlns:sodipodi="http://sodipodi.sourceforge.net/DTD/sodipodi-0.dtd" xmlns:svg="http://www.w3.org/2000/svg" xmlns:ns1="http://sozi.baierouge.fr" xmlns:xlink="http://www.w3.org/1999/xlink" id="svg2" sodipodi:docname="needle.svg" inkscape:export-filename="/home/ginger/art/dailyillustration/needle.png" viewBox="0 0 462.66 611.18" inkscape:export-xdpi="90" version="1.1" inkscape:export-ydpi="90" inkscape:version="0.47pre4 r22446">
  <sodipodi:namedview id="base" bordercolor="#666666" inkscape:pageshadow="2" inkscape:guide-bbox="true" pagecolor="#ffffff" inkscape:window-height="746" inkscape:window-maximized="1" inkscape:zoom="0.49497475" inkscape:window-x="0" showgrid="false" borderopacity="1.0" inkscape:current-layer="layer1" inkscape:cx="-2.1820468" inkscape:cy="315.04172" showguides="true" inkscape:window-y="32" inkscape:window-width="1280" inkscape:pageopacity="0.0" inkscape:document-units="px"/>
  <g id="layer1" inkscape:label="Layer 1" inkscape:groupmode="layer" transform="translate(-143.64 -71.619)">
    <path id="path2947" style="fill:#666666" d="m143.64 681.9 5.6704-10.402 6.6626-10.951 13.339-18.978 11.433-16.005 14.588-20.488 28.735-37.983 21.601-29.053 48.283-63.489 26.297-34.546 56.357-74.235 78.801-104.08 49.16-65.088 6.774-9.8854 10.696-14.13 11.232-16.063 9.0852-13.577 14.789-21.882 12.146-17.034 9.6711-12.773 9.6189-11.137 6.8082-6.3377 3.2506-1.9701 3.5638 0.60543 2.4232 0.91314 0.88314 2.739 0.79331 3.7475-0.769 4.1337-2.7858 6.0406-5.0112 8.1052-8.9168 12.99-11.212 15.234-12.204 15.784-11.84 15.272-10.86 13.249-8.6642 9.9599-5.0119 6.6536-15.339 20.89-45.239 59.391-59.548 78.907-42.743 55.753-49.033 65.342-48.427 63.23-45.365 59.137-40.301 50.847-18.32 21.921-7.4095 8.4331-6.4107 6.4698-4.328 3.5116-0.95472 1.1775-0.99236 0.54977-0.97604-0.8974zm398.52-528.85 0.53301 0.98756 1.87 0.75436 1.6368 1.5039 3.8359-4.705 11.523-15.563 14.335-18.91 11.597-16.575 5.1393-7.0343 1.0278-2.1907-1.272-2.0161-2.039-1.6194-1.5254-0.43777-2.4586 2.8142-0.99169 2.0015-3.7044 4.9424-6.1679 7.7733-6.5855 8.4699-5.9459 8.4539-6.774 9.8854-5.5931 7.9201-6.9376 10.455-1.5032 3.0884z"/>
    <path id="path2951" style="fill:#ececec" d="m603.13 73.513-6.662 8.041-1.8376 2.7903 0.8479 0.65805 2.3822-0.35309-0.055 0.19153-6.3106 11.874-16.179 23.142-10.009 13.923-14.862 19.995-4.9061 4.8126-0.57301-1.6159-0.57303-1.6159-0.90291-0.46646-3.755 3.6915-8.966 11.734-2.2507 4.9526 1.0678-0.10836 4.6578-3.225 6.0572-5.9337 4.6596-4.676 3.1802-3.8564 7.1001-8.1226 6.4987-8.9174 7.43-9.2721 8.0348-11.379 7.1026-9.5731 5.6225-8.754 4.443-6.8117 5.7857-7.8779 3.9483-5.0874 1.7825-2.5987-1.0894-4.8744-0.10837-1.0678-1.5609 0.38145z"/>
    <path id="path2953" style="fill:#cccccc" d="m602.5 73.539-4.2696-1.0179-3.3168 3.6099-6.3871 7.0832-10.885 14.086-10.94 14.278-6.6087 9.3004-8.0631 12.201-7.3767 10.531-5.6225 8.754-2.6072 5.4723-2.1124 3.7482-1.7293 3.8581-3.017 4.7327-2.3839 1.8041-2.5789 4.6511-4.553 7.1948-9.3508 13.075-7.9248 10.996-12.586 17.123-6.0323 8.0144-3.1819 5.3074-11.05 14.661-10.2 13.868-10.282 13.43-18.372 25.001-26.075 33.78-31.531 40.508-20.564 26.86-26.048 34.41-19.413 25.739-26.623 34.245-17.109 22.046-14.45 19.284-14.943 19.557-16.945 22.923-12.886 16.001-7.5948 9.8467-2.4938 2.1872 9.2958-12.884 8.7194-11.598 7.3484-9.7103 8.4725-11.461 8.3363-11.708 8.7744-11.789 8.6361-10.585 10.064-14.115 9.8989-13.54 10.694-14.141 12.311-16.165 18.81-25.083 12.723-16.877 13.189-17.779 13.737-18.244 25.582-33.507 19.961-26.204 59.692-78.666 17.85-23.907 27.941-37.392 10.53-15.018 9.0776-13.568 6.802-10.696 5.4859-9.0006 7.3767-10.532 6.2256-9.4104 9.2142-13.322 9.3775-12.446 6.1973-8.5891 8.5545-11.023 4.6329-5.3057 6.412-5.0025 2.3839-1.8041 2.792 0.38656 1.0112 1.5343z"/>
  </g>
  <metadata>
    <rdf:RDF>
      <cc:Work>
        <dc:format>image/svg+xml</dc:format>
        <dc:type rdf:resource="http://purl.org/dc/dcmitype/StillImage"/>
        <cc:license rdf:resource="http://creativecommons.org/licenses/publicdomain/"/>
        <dc:publisher>
          <cc:Agent rdf:about="http://openclipart.org/">
            <dc:title>Openclipart</dc:title>
          </cc:Agent>
        </dc:publisher>
        <dc:title>Sewing needle</dc:title>
        <dc:date>2010-04-08T21:43:45</dc:date>
        <dc:description>A sewing needle, slightly slanted.</dc:description>
        <dc:source>https://openclipart.org/detail/40489/sewing-needle-by-gingercoons</dc:source>
        <dc:creator>
          <cc:Agent>
            <dc:title>gingercoons</dc:title>
          </cc:Agent>
        </dc:creator>
        <dc:subject>
          <rdf:Bag>
            <rdf:li>b &amp; w</rdf:li>
            <rdf:li>b&amp;w</rdf:li>
            <rdf:li>black &amp; white</rdf:li>
            <rdf:li>black and white</rdf:li>
            <rdf:li>craft</rdf:li>
            <rdf:li>greyscale</rdf:li>
            <rdf:li>metal</rdf:li>
            <rdf:li>needle</rdf:li>
            <rdf:li>sewing</rdf:li>
            <rdf:li>steel</rdf:li>
          </rdf:Bag>
        </dc:subject>
      </cc:Work>
      <cc:License rdf:about="http://creativecommons.org/licenses/publicdomain/">
        <cc:permits rdf:resource="http://creativecommons.org/ns#Reproduction"/>
        <cc:permits rdf:resource="http://creativecommons.org/ns#Distribution"/>
        <cc:permits rdf:resource="http://creativecommons.org/ns#DerivativeWorks"/>
      </cc:License>
    </rdf:RDF>
  </metadata>
</svg>